<?xml version="1.0" encoding="iso-8859-1"?>
<!-- Generator: Adobe Illustrator 18.0.0, SVG Export Plug-In . SVG Version: 6.00 Build 0)  -->
<!DOCTYPE svg PUBLIC "-//W3C//DTD SVG 1.1//EN" "http://www.w3.org/Graphics/SVG/1.1/DTD/svg11.dtd">
<svg version="1.1" id="Capa_1" xmlns="http://www.w3.org/2000/svg" xmlns:xlink="http://www.w3.org/1999/xlink" x="0px" y="0px"
	 viewBox="0 0 357.788 357.788" style="enable-background:new 0 0 357.788 357.788;" xml:space="preserve">
<g>
	<g>
		<path d="M332.232,256.22V7.503c0-0.024,0-1.58-0.648-3.052c-1.67-3.79-6.117-5.483-9.904-3.8L124.408,88.512
			c-2.842,1.267-4.508,4.083-4.447,7.01c0,0.005,0,0.008,0,0.013v168.498c-5.213-3.644-11.396-5.73-17.92-5.73
			c-8.066,0-15.658,3.306-21.789,9.308c-6.127-6.002-13.715-9.308-21.781-9.308c-14.775,0-27.824,10.699-31.732,26.018
			c-2.037,7.988-2.471,20.69,7.029,35.841c8.42,13.427,22.85,25.777,42.893,36.71c1.119,0.61,2.355,0.916,3.592,0.916
			c1.236,0,2.471-0.306,3.59-0.916c20.047-10.933,34.482-23.283,42.904-36.708c6.58-10.49,8.394-19.806,8.215-27.196V178.343
			L317.232,97.35v129.936c-5.213-3.645-11.397-5.73-17.92-5.73c-8.066,0-15.658,3.306-21.789,9.308
			c-6.127-6.002-13.715-9.308-21.781-9.308c-14.775,0-27.824,10.699-31.733,26.019c-2.037,7.988-2.471,20.69,7.029,35.841
			c8.42,13.427,22.85,25.777,42.893,36.71c1.119,0.61,2.355,0.916,3.592,0.916s2.471-0.306,3.59-0.916
			c20.047-10.933,34.482-23.283,42.904-36.708C330.597,272.925,332.412,263.611,332.232,256.22z M41.273,288.028
			c2.176-8.533,9.408-14.726,17.197-14.726c5.908,0,11.365,3.638,15.365,10.243c1.359,2.244,3.791,3.615,6.414,3.615h0.002
			c2.623,0,5.055-1.37,6.414-3.613c4.004-6.606,9.463-10.245,15.375-10.245c7.793,0,15.029,6.193,17.205,14.726
			c1.658,6.506,3.564,29.197-38.994,53.665C37.705,317.226,39.615,294.534,41.273,288.028z M238.545,251.281
			c2.176-8.533,9.408-14.726,17.197-14.726c5.908,0,11.365,3.638,15.365,10.243c1.359,2.244,3.791,3.615,6.414,3.615h0.002
			c2.623,0,5.055-1.37,6.414-3.613c4.004-6.606,9.463-10.245,15.375-10.245c7.793,0,15.029,6.193,17.205,14.726
			c1.658,6.506,3.564,29.197-38.994,53.665C234.976,280.479,236.886,257.787,238.545,251.281z M134.961,161.93v-61.696
			l182.272-81.181v61.883L134.961,161.93z"/>
	</g>
</g>
<g>
</g>
<g>
</g>
<g>
</g>
<g>
</g>
<g>
</g>
<g>
</g>
<g>
</g>
<g>
</g>
<g>
</g>
<g>
</g>
<g>
</g>
<g>
</g>
<g>
</g>
<g>
</g>
<g>
</g>
</svg>
