<?xml version="1.0" encoding="iso-8859-1"?>
<!-- Generator: Adobe Illustrator 19.0.0, SVG Export Plug-In . SVG Version: 6.00 Build 0)  -->
<svg version="1.1" id="Layer_1" xmlns="http://www.w3.org/2000/svg" xmlns:xlink="http://www.w3.org/1999/xlink" x="0px" y="0px"
	 viewBox="0 0 512 512" style="enable-background:new 0 0 512 512;" xml:space="preserve">
<g>
	<g>
		<path d="M410.805,0h-307.05C81.13,0,61.44,18.02,61.44,40.62v430.025c0,22.6,19.69,41.355,42.315,41.355h307.05
			c22.625,0,39.755-18.755,39.755-41.355V40.62C450.56,18.02,433.43,0,410.805,0z M430.08,470.645
			c0,11.31-7.94,20.875-19.275,20.875h-307.05c-11.335,0-21.835-9.565-21.835-20.875V40.62c0-11.305,10.5-20.14,21.835-20.14h307.05
			c11.335,0,19.275,8.835,19.275,20.14V470.645z"/>
	</g>
</g>
<g>
	<g>
		<path d="M339.2,40.595c-33.88,0-61.44,27.56-61.44,61.44c0,33.88,27.56,61.44,61.44,61.44s61.44-27.56,61.44-61.44
			C400.64,68.155,373.08,40.595,339.2,40.595z M339.2,142.995c-22.585,0-40.96-18.375-40.96-40.96
			c0-22.585,18.375-40.96,40.96-40.96s40.96,18.375,40.96,40.96C380.16,124.62,361.785,142.995,339.2,142.995z"/>
	</g>
</g>
<g>
	<g>
		<path d="M257.28,214.675c-67.755,0-122.88,55.125-122.88,122.88s55.125,122.88,122.88,122.88s122.88-55.125,122.88-122.88
			S325.035,214.675,257.28,214.675z M257.28,439.955c-56.465,0-102.4-45.935-102.4-102.4c0-56.465,45.935-102.4,102.4-102.4
			c56.465,0,102.4,45.935,102.4,102.4C359.68,394.02,313.745,439.955,257.28,439.955z"/>
	</g>
</g>
<g>
</g>
<g>
</g>
<g>
</g>
<g>
</g>
<g>
</g>
<g>
</g>
<g>
</g>
<g>
</g>
<g>
</g>
<g>
</g>
<g>
</g>
<g>
</g>
<g>
</g>
<g>
</g>
<g>
</g>
</svg>
